<?xml version="1.0" encoding="UTF-8" standalone="no"?>
<!DOCTYPE svg PUBLIC "-//W3C//DTD SVG 1.1//EN" "http://www.w3.org/Graphics/SVG/1.1/DTD/svg11.dtd">
<!-- Generated by graphviz version 2.40.1 (20161225.0304)
 -->
<!-- Title: G Pages: 1 -->
<svg width="2026pt" height="1196pt" viewBox="0.00 0.00 2026.00 1196.00" xmlns="http://www.w3.org/2000/svg" xmlns:xlink="http://www.w3.org/1999/xlink">
<g id="graph0" class="graph" transform="scale(1 1) rotate(0) translate(4 1192)">
<title>G</title>
<polygon fill="#ffffff" stroke="transparent" points="-4,4 -4,-1192 2022,-1192 2022,4 -4,4"/>
<!-- kl -->
<g id="node1" class="node">
<title>kl</title>
<polygon fill="none" stroke="#000000" points="823,-180 787,-180 787,-144 823,-144 823,-180"/>
<text text-anchor="middle" x="805" y="-157.8" font-family="Times,serif" font-size="14.00" fill="#000000">kl</text>
</g>
<!-- ll -->
<g id="node40" class="node">
<title>ll</title>
<polygon fill="none" stroke="#000000" points="963,-108 927,-108 927,-72 963,-72 963,-108"/>
<text text-anchor="middle" x="945" y="-85.8" font-family="Times,serif" font-size="14.00" fill="#000000">ll</text>
</g>
<!-- kl&#45;&gt;ll -->
<g id="edge1" class="edge">
<title>kl-&gt;ll</title>
<path fill="none" stroke="#000000" d="M823.0159,-152.7347C846.9304,-140.4358 889.3895,-118.5997 917.3697,-104.2099"/>
<polygon fill="#000000" stroke="#000000" points="919.3165,-107.1445 926.6086,-99.4584 916.115,-100.9194 919.3165,-107.1445"/>
</g>
<!-- vd -->
<g id="node2" class="node">
<title>vd</title>
<ellipse fill="none" stroke="#000000" cx="754" cy="-522" rx="27" ry="18"/>
<text text-anchor="middle" x="754" y="-517.8" font-family="Times,serif" font-size="14.00" fill="#000000">vd</text>
</g>
<!-- ff -->
<g id="node52" class="node">
<title>ff</title>
<polygon fill="none" stroke="#000000" points="753,-252 717,-252 717,-216 753,-216 753,-252"/>
<text text-anchor="middle" x="735" y="-229.8" font-family="Times,serif" font-size="14.00" fill="#000000">ff</text>
</g>
<!-- vd&#45;&gt;ff -->
<g id="edge2" class="edge">
<title>vd-&gt;ff</title>
<path fill="none" stroke="#000000" d="M767.104,-505.998C797.5938,-466.7002 867.566,-363.1797 825,-288 811.7468,-264.5924 783.8517,-250.2245 762.6079,-242.2544"/>
<polygon fill="#000000" stroke="#000000" points="763.6946,-238.9267 753.0998,-238.9386 761.3896,-245.5363 763.6946,-238.9267"/>
</g>
<!-- mb -->
<g id="node54" class="node">
<title>mb</title>
<ellipse fill="none" stroke="#000000" cx="754" cy="-450" rx="27" ry="18"/>
<text text-anchor="middle" x="754" y="-445.8" font-family="Times,serif" font-size="14.00" fill="#000000">mb</text>
</g>
<!-- vd&#45;&gt;mb -->
<g id="edge3" class="edge">
<title>vd-&gt;mb</title>
<path fill="none" stroke="#000000" d="M754,-503.8314C754,-496.131 754,-486.9743 754,-478.4166"/>
<polygon fill="#000000" stroke="#000000" points="757.5001,-478.4132 754,-468.4133 750.5001,-478.4133 757.5001,-478.4132"/>
</g>
<!-- dx -->
<g id="node3" class="node">
<title>dx</title>
<ellipse fill="none" stroke="#000000" cx="1148" cy="-378" rx="27" ry="18"/>
<text text-anchor="middle" x="1148" y="-373.8" font-family="Times,serif" font-size="14.00" fill="#000000">dx</text>
</g>
<!-- fx -->
<g id="node47" class="node">
<title>fx</title>
<ellipse fill="none" stroke="#000000" cx="1091" cy="-306" rx="27" ry="18"/>
<text text-anchor="middle" x="1091" y="-301.8" font-family="Times,serif" font-size="14.00" fill="#000000">fx</text>
</g>
<!-- dx&#45;&gt;fx -->
<g id="edge5" class="edge">
<title>dx-&gt;fx</title>
<path fill="none" stroke="#000000" d="M1135.3499,-362.0209C1127.8965,-352.6061 1118.3225,-340.5126 1109.9786,-329.973"/>
<polygon fill="#000000" stroke="#000000" points="1112.566,-327.6025 1103.6148,-321.9345 1107.0777,-331.9474 1112.566,-327.6025"/>
</g>
<!-- hb -->
<g id="node55" class="node">
<title>hb</title>
<polygon fill="none" stroke="#000000" points="1225,-1044 1189,-1044 1189,-1008 1225,-1008 1225,-1044"/>
<text text-anchor="middle" x="1207" y="-1021.8" font-family="Times,serif" font-size="14.00" fill="#000000">hb</text>
</g>
<!-- dx&#45;&gt;hb -->
<g id="edge4" class="edge">
<title>dx-&gt;hb</title>
<path fill="none" stroke="#000000" d="M1175.2583,-380.1251C1242.7098,-387.0164 1412,-414.9732 1412,-522 1412,-882 1412,-882 1412,-882 1412,-967.3972 1291.4085,-1006.5075 1235.2069,-1020.0977"/>
<polygon fill="#000000" stroke="#000000" points="1234.147,-1016.7503 1225.1924,-1022.4129 1235.7238,-1023.5704 1234.147,-1016.7503"/>
</g>
<!-- jj -->
<g id="node4" class="node">
<title>jj</title>
<ellipse fill="none" stroke="#000000" cx="207" cy="-666" rx="27" ry="18"/>
<text text-anchor="middle" x="207" y="-661.8" font-family="Times,serif" font-size="14.00" fill="#000000">jj</text>
</g>
<!-- xt -->
<g id="node19" class="node">
<title>xt</title>
<ellipse fill="none" stroke="#000000" cx="169" cy="-594" rx="27" ry="18"/>
<text text-anchor="middle" x="169" y="-589.8" font-family="Times,serif" font-size="14.00" fill="#000000">xt</text>
</g>
<!-- jj&#45;&gt;xt -->
<g id="edge6" class="edge">
<title>jj-&gt;xt</title>
<path fill="none" stroke="#000000" d="M197.9945,-648.937C193.5172,-640.4537 188.0048,-630.0092 182.993,-620.513"/>
<polygon fill="#000000" stroke="#000000" points="185.9678,-618.6509 178.2048,-611.4407 179.7771,-621.9182 185.9678,-618.6509"/>
</g>
<!-- th -->
<g id="node44" class="node">
<title>th</title>
<polygon fill="none" stroke="#000000" points="265,-1188 229,-1188 229,-1152 265,-1152 265,-1188"/>
<text text-anchor="middle" x="247" y="-1165.8" font-family="Times,serif" font-size="14.00" fill="#000000">th</text>
</g>
<!-- jj&#45;&gt;th -->
<g id="edge7" class="edge">
<title>jj-&gt;th</title>
<path fill="none" stroke="#000000" d="M203.4776,-684.1045C198.4982,-711.3176 190,-764.4358 190,-810 190,-1026 190,-1026 190,-1026 190,-1069.2403 212.4945,-1114.9813 229.2212,-1143.0168"/>
<polygon fill="#000000" stroke="#000000" points="226.4126,-1145.1312 234.6318,-1151.8166 232.3756,-1141.4647 226.4126,-1145.1312"/>
</g>
<!-- ld -->
<g id="node5" class="node">
<title>ld</title>
<ellipse fill="none" stroke="#000000" cx="773" cy="-378" rx="27" ry="18"/>
<text text-anchor="middle" x="773" y="-373.8" font-family="Times,serif" font-size="14.00" fill="#000000">ld</text>
</g>
<!-- fq -->
<g id="node20" class="node">
<title>fq</title>
<ellipse fill="none" stroke="#000000" cx="773" cy="-306" rx="27" ry="18"/>
<text text-anchor="middle" x="773" y="-301.8" font-family="Times,serif" font-size="14.00" fill="#000000">fq</text>
</g>
<!-- ld&#45;&gt;fq -->
<g id="edge8" class="edge">
<title>ld-&gt;fq</title>
<path fill="none" stroke="#000000" d="M773,-359.8314C773,-352.131 773,-342.9743 773,-334.4166"/>
<polygon fill="#000000" stroke="#000000" points="776.5001,-334.4132 773,-324.4133 769.5001,-334.4133 776.5001,-334.4132"/>
</g>
<!-- ld&#45;&gt;ff -->
<g id="edge9" class="edge">
<title>ld-&gt;ff</title>
<path fill="none" stroke="#000000" d="M787.3779,-362.3417C802.3023,-344.0875 821.809,-313.204 809,-288 799.3023,-268.9181 779.3486,-254.975 762.6028,-246.0414"/>
<polygon fill="#000000" stroke="#000000" points="763.7266,-242.6908 753.2157,-241.3594 760.6022,-248.9548 763.7266,-242.6908"/>
</g>
<!-- bn -->
<g id="node6" class="node">
<title>bn</title>
<ellipse fill="none" stroke="#000000" cx="659" cy="-666" rx="27" ry="18"/>
<text text-anchor="middle" x="659" y="-661.8" font-family="Times,serif" font-size="14.00" fill="#000000">bn</text>
</g>
<!-- lg -->
<g id="node27" class="node">
<title>lg</title>
<ellipse fill="none" stroke="#000000" cx="697" cy="-594" rx="27" ry="18"/>
<text text-anchor="middle" x="697" y="-589.8" font-family="Times,serif" font-size="14.00" fill="#000000">lg</text>
</g>
<!-- bn&#45;&gt;lg -->
<g id="edge11" class="edge">
<title>bn-&gt;lg</title>
<path fill="none" stroke="#000000" d="M668.0055,-648.937C672.4828,-640.4537 677.9952,-630.0092 683.007,-620.513"/>
<polygon fill="#000000" stroke="#000000" points="686.2229,-621.9182 687.7952,-611.4407 680.0322,-618.6509 686.2229,-621.9182"/>
</g>
<!-- bn&#45;&gt;ff -->
<g id="edge10" class="edge">
<title>bn-&gt;ff</title>
<path fill="none" stroke="#000000" d="M655.4776,-647.8955C650.4982,-620.6824 642,-567.5642 642,-522 642,-522 642,-522 642,-378 642,-328.2186 681.7061,-282.0123 709.2294,-255.9632"/>
<polygon fill="#000000" stroke="#000000" points="711.6323,-258.5084 716.6262,-249.1642 706.8953,-253.3547 711.6323,-258.5084"/>
</g>
<!-- mv -->
<g id="node7" class="node">
<title>mv</title>
<ellipse fill="none" stroke="#000000" cx="1281" cy="-810" rx="27" ry="18"/>
<text text-anchor="middle" x="1281" y="-805.8" font-family="Times,serif" font-size="14.00" fill="#000000">mv</text>
</g>
<!-- mx -->
<g id="node8" class="node">
<title>mx</title>
<ellipse fill="none" stroke="#000000" cx="1243" cy="-738" rx="27" ry="18"/>
<text text-anchor="middle" x="1243" y="-733.8" font-family="Times,serif" font-size="14.00" fill="#000000">mx</text>
</g>
<!-- mv&#45;&gt;mx -->
<g id="edge13" class="edge">
<title>mv-&gt;mx</title>
<path fill="none" stroke="#000000" d="M1271.9945,-792.937C1267.5172,-784.4537 1262.0048,-774.0092 1256.993,-764.513"/>
<polygon fill="#000000" stroke="#000000" points="1259.9678,-762.6509 1252.2048,-755.4407 1253.7771,-765.9182 1259.9678,-762.6509"/>
</g>
<!-- mv&#45;&gt;hb -->
<g id="edge12" class="edge">
<title>mv-&gt;hb</title>
<path fill="none" stroke="#000000" d="M1278.255,-828.0638C1273.2175,-858.6024 1261.0375,-921.993 1240,-972 1236.1203,-981.2222 1230.8252,-990.7162 1225.6125,-999.1217"/>
<polygon fill="#000000" stroke="#000000" points="1222.5277,-997.4477 1220.0594,-1007.751 1228.4142,-1001.2358 1222.5277,-997.4477"/>
</g>
<!-- xp -->
<g id="node35" class="node">
<title>xp</title>
<ellipse fill="none" stroke="#000000" cx="1224" cy="-666" rx="27" ry="18"/>
<text text-anchor="middle" x="1224" y="-661.8" font-family="Times,serif" font-size="14.00" fill="#000000">xp</text>
</g>
<!-- mx&#45;&gt;xp -->
<g id="edge14" class="edge">
<title>mx-&gt;xp</title>
<path fill="none" stroke="#000000" d="M1238.3034,-720.2022C1236.2024,-712.2406 1233.676,-702.6671 1231.335,-693.7957"/>
<polygon fill="#000000" stroke="#000000" points="1234.6442,-692.6185 1228.7084,-683.8425 1227.8759,-694.4046 1234.6442,-692.6185"/>
</g>
<!-- qm -->
<g id="node9" class="node">
<title>qm</title>
<ellipse fill="none" stroke="#000000" cx="1672" cy="-522" rx="27" ry="18"/>
<text text-anchor="middle" x="1672" y="-517.8" font-family="Times,serif" font-size="14.00" fill="#000000">qm</text>
</g>
<!-- tj -->
<g id="node17" class="node">
<title>tj</title>
<polygon fill="none" stroke="#000000" points="1749,-1044 1713,-1044 1713,-1008 1749,-1008 1749,-1044"/>
<text text-anchor="middle" x="1731" y="-1021.8" font-family="Times,serif" font-size="14.00" fill="#000000">tj</text>
</g>
<!-- qm&#45;&gt;tj -->
<g id="edge16" class="edge">
<title>qm-&gt;tj</title>
<path fill="none" stroke="#000000" d="M1657.7321,-537.4916C1636.2285,-562.5178 1598,-614.2816 1598,-666 1598,-882 1598,-882 1598,-882 1598,-943.648 1664.5949,-990.1531 1703.5381,-1012.0779"/>
<polygon fill="#000000" stroke="#000000" points="1702.33,-1015.4055 1712.7858,-1017.1167 1705.6793,-1009.2587 1702.33,-1015.4055"/>
</g>
<!-- gz -->
<g id="node21" class="node">
<title>gz</title>
<ellipse fill="none" stroke="#000000" cx="1758" cy="-450" rx="27" ry="18"/>
<text text-anchor="middle" x="1758" y="-445.8" font-family="Times,serif" font-size="14.00" fill="#000000">gz</text>
</g>
<!-- qm&#45;&gt;gz -->
<g id="edge15" class="edge">
<title>qm-&gt;gz</title>
<path fill="none" stroke="#000000" d="M1688.9908,-507.7751C1701.5942,-497.2234 1718.9728,-482.674 1733.1368,-470.8157"/>
<polygon fill="#000000" stroke="#000000" points="1735.6237,-473.2984 1741.0445,-464.1953 1731.1301,-467.9311 1735.6237,-473.2984"/>
</g>
<!-- zd -->
<g id="node10" class="node">
<title>zd</title>
<ellipse fill="none" stroke="#000000" cx="583" cy="-810" rx="27" ry="18"/>
<text text-anchor="middle" x="583" y="-805.8" font-family="Times,serif" font-size="14.00" fill="#000000">zd</text>
</g>
<!-- zp -->
<g id="node38" class="node">
<title>zp</title>
<ellipse fill="none" stroke="#000000" cx="621" cy="-738" rx="27" ry="18"/>
<text text-anchor="middle" x="621" y="-733.8" font-family="Times,serif" font-size="14.00" fill="#000000">zp</text>
</g>
<!-- zd&#45;&gt;zp -->
<g id="edge17" class="edge">
<title>zd-&gt;zp</title>
<path fill="none" stroke="#000000" d="M592.0055,-792.937C596.4828,-784.4537 601.9952,-774.0092 607.007,-764.513"/>
<polygon fill="#000000" stroke="#000000" points="610.2229,-765.9182 611.7952,-755.4407 604.0322,-762.6509 610.2229,-765.9182"/>
</g>
<!-- tq -->
<g id="node11" class="node">
<title>tq</title>
<ellipse fill="none" stroke="#000000" cx="321" cy="-882" rx="27" ry="18"/>
<text text-anchor="middle" x="321" y="-877.8" font-family="Times,serif" font-size="14.00" fill="#000000">tq</text>
</g>
<!-- mf -->
<g id="node31" class="node">
<title>mf</title>
<ellipse fill="none" stroke="#000000" cx="283" cy="-810" rx="27" ry="18"/>
<text text-anchor="middle" x="283" y="-805.8" font-family="Times,serif" font-size="14.00" fill="#000000">mf</text>
</g>
<!-- tq&#45;&gt;mf -->
<g id="edge18" class="edge">
<title>tq-&gt;mf</title>
<path fill="none" stroke="#000000" d="M311.9945,-864.937C307.5172,-856.4537 302.0048,-846.0092 296.993,-836.513"/>
<polygon fill="#000000" stroke="#000000" points="299.9678,-834.6509 292.2048,-827.4407 293.7771,-837.9182 299.9678,-834.6509"/>
</g>
<!-- vm -->
<g id="node12" class="node">
<title>vm</title>
<polygon fill="none" stroke="#000000" points="350,-180 314,-180 314,-144 350,-144 350,-180"/>
<text text-anchor="middle" x="332" y="-157.8" font-family="Times,serif" font-size="14.00" fill="#000000">vm</text>
</g>
<!-- vm&#45;&gt;ll -->
<g id="edge19" class="edge">
<title>vm-&gt;ll</title>
<path fill="none" stroke="#000000" d="M350.0139,-159.8842C436.6332,-149.7103 810.4783,-105.8003 916.7341,-93.32"/>
<polygon fill="#000000" stroke="#000000" points="917.4617,-96.7587 926.9851,-92.1159 916.645,-89.8065 917.4617,-96.7587"/>
</g>
<!-- qr -->
<g id="node13" class="node">
<title>qr</title>
<ellipse fill="none" stroke="#000000" cx="245" cy="-738" rx="27" ry="18"/>
<text text-anchor="middle" x="245" y="-733.8" font-family="Times,serif" font-size="14.00" fill="#000000">qr</text>
</g>
<!-- qr&#45;&gt;jj -->
<g id="edge20" class="edge">
<title>qr-&gt;jj</title>
<path fill="none" stroke="#000000" d="M235.9945,-720.937C231.5172,-712.4537 226.0048,-702.0092 220.993,-692.513"/>
<polygon fill="#000000" stroke="#000000" points="223.9678,-690.6509 216.2048,-683.4407 217.7771,-693.9182 223.9678,-690.6509"/>
</g>
<!-- bv -->
<g id="node14" class="node">
<title>bv</title>
<ellipse fill="none" stroke="#000000" cx="397" cy="-1026" rx="27" ry="18"/>
<text text-anchor="middle" x="397" y="-1021.8" font-family="Times,serif" font-size="14.00" fill="#000000">bv</text>
</g>
<!-- lr -->
<g id="node26" class="node">
<title>lr</title>
<ellipse fill="none" stroke="#000000" cx="359" cy="-954" rx="27" ry="18"/>
<text text-anchor="middle" x="359" y="-949.8" font-family="Times,serif" font-size="14.00" fill="#000000">lr</text>
</g>
<!-- bv&#45;&gt;lr -->
<g id="edge22" class="edge">
<title>bv-&gt;lr</title>
<path fill="none" stroke="#000000" d="M387.9945,-1008.937C383.5172,-1000.4537 378.0048,-990.0092 372.993,-980.513"/>
<polygon fill="#000000" stroke="#000000" points="375.9678,-978.6509 368.2048,-971.4407 369.7771,-981.9182 375.9678,-978.6509"/>
</g>
<!-- bv&#45;&gt;th -->
<g id="edge21" class="edge">
<title>bv-&gt;th</title>
<path fill="none" stroke="#000000" d="M392.7112,-1043.9563C387.1779,-1063.7583 375.8238,-1095.5211 356,-1116 333.5084,-1139.2349 298.9256,-1153.9941 274.7631,-1162.1041"/>
<polygon fill="#000000" stroke="#000000" points="273.5776,-1158.8083 265.1114,-1165.178 275.7019,-1165.4782 273.5776,-1158.8083"/>
</g>
<!-- rf -->
<g id="node15" class="node">
<title>rf</title>
<ellipse fill="none" stroke="#000000" cx="1881" cy="-306" rx="27" ry="18"/>
<text text-anchor="middle" x="1881" y="-301.8" font-family="Times,serif" font-size="14.00" fill="#000000">rf</text>
</g>
<!-- rf&#45;&gt;tj -->
<g id="edge24" class="edge">
<title>rf-&gt;tj</title>
<path fill="none" stroke="#000000" d="M1884.5224,-324.1045C1889.5018,-351.3176 1898,-404.4358 1898,-450 1898,-882 1898,-882 1898,-882 1898,-954.7327 1806.0226,-998.8204 1758.5869,-1016.7215"/>
<polygon fill="#000000" stroke="#000000" points="1757.3877,-1013.4333 1749.1898,-1020.1449 1759.7838,-1020.0105 1757.3877,-1013.4333"/>
</g>
<!-- lq -->
<g id="node49" class="node">
<title>lq</title>
<ellipse fill="none" stroke="#000000" cx="1908" cy="-234" rx="27" ry="18"/>
<text text-anchor="middle" x="1908" y="-229.8" font-family="Times,serif" font-size="14.00" fill="#000000">lq</text>
</g>
<!-- rf&#45;&gt;lq -->
<g id="edge23" class="edge">
<title>rf-&gt;lq</title>
<path fill="none" stroke="#000000" d="M1887.6742,-288.2022C1890.7476,-280.0064 1894.4616,-270.1024 1897.8695,-261.0145"/>
<polygon fill="#000000" stroke="#000000" points="1901.1685,-262.1853 1901.4026,-251.593 1894.6142,-259.7274 1901.1685,-262.1853"/>
</g>
<!-- rk -->
<g id="node16" class="node">
<title>rk</title>
<ellipse fill="none" stroke="#000000" cx="150" cy="-522" rx="27" ry="18"/>
<text text-anchor="middle" x="150" y="-517.8" font-family="Times,serif" font-size="14.00" fill="#000000">rk</text>
</g>
<!-- rc -->
<g id="node23" class="node">
<title>rc</title>
<ellipse fill="none" stroke="#000000" cx="150" cy="-450" rx="27" ry="18"/>
<text text-anchor="middle" x="150" y="-445.8" font-family="Times,serif" font-size="14.00" fill="#000000">rc</text>
</g>
<!-- rk&#45;&gt;rc -->
<g id="edge29" class="edge">
<title>rk-&gt;rc</title>
<path fill="none" stroke="#000000" d="M150,-503.8314C150,-496.131 150,-486.9743 150,-478.4166"/>
<polygon fill="#000000" stroke="#000000" points="153.5001,-478.4132 150,-468.4133 146.5001,-478.4133 153.5001,-478.4132"/>
</g>
<!-- rk&#45;&gt;th -->
<g id="edge30" class="edge">
<title>rk-&gt;th</title>
<path fill="none" stroke="#000000" d="M142.7149,-539.384C132.1956,-566.1035 114,-619.0997 114,-666 114,-1026 114,-1026 114,-1026 114,-1087.648 180.5949,-1134.1531 219.5381,-1156.0779"/>
<polygon fill="#000000" stroke="#000000" points="218.33,-1159.4055 228.7858,-1161.1167 221.6793,-1153.2587 218.33,-1159.4055"/>
</g>
<!-- tj&#45;&gt;gz -->
<g id="edge33" class="edge">
<title>tj-&gt;gz</title>
<path fill="none" stroke="#000000" d="M1749.2089,-1016.6683C1784.7679,-996.995 1860,-947.6185 1860,-882 1860,-882 1860,-882 1860,-594 1860,-541.9134 1815.0119,-495.4981 1784.791,-470.1944"/>
<polygon fill="#000000" stroke="#000000" points="1786.6774,-467.2176 1776.7084,-463.6302 1782.2644,-472.6513 1786.6774,-467.2176"/>
</g>
<!-- gv -->
<g id="node25" class="node">
<title>gv</title>
<ellipse fill="none" stroke="#000000" cx="1991" cy="-954" rx="27" ry="18"/>
<text text-anchor="middle" x="1991" y="-949.8" font-family="Times,serif" font-size="14.00" fill="#000000">gv</text>
</g>
<!-- tj&#45;&gt;gv -->
<g id="edge32" class="edge">
<title>tj-&gt;gv</title>
<path fill="none" stroke="#000000" d="M1749.1852,-1022.6188C1787.105,-1015.3291 1877.1467,-996.7687 1950,-972 1953.0912,-970.949 1956.2717,-969.7584 1959.429,-968.5023"/>
<polygon fill="#000000" stroke="#000000" points="1960.8472,-971.7029 1968.7186,-964.6113 1958.1428,-965.2464 1960.8472,-971.7029"/>
</g>
<!-- bt -->
<g id="node30" class="node">
<title>bt</title>
<ellipse fill="none" stroke="#000000" cx="1691" cy="-666" rx="27" ry="18"/>
<text text-anchor="middle" x="1691" y="-661.8" font-family="Times,serif" font-size="14.00" fill="#000000">bt</text>
</g>
<!-- tj&#45;&gt;bt -->
<g id="edge34" class="edge">
<title>tj-&gt;bt</title>
<path fill="none" stroke="#000000" d="M1718.6318,-1007.8166C1701.8677,-981.3548 1674,-930.1283 1674,-882 1674,-882 1674,-882 1674,-810 1674,-769.5973 1680.6819,-723.2552 1685.6674,-694.3013"/>
<polygon fill="#000000" stroke="#000000" points="1689.1757,-694.5623 1687.4776,-684.1045 1682.2835,-693.3387 1689.1757,-694.5623"/>
</g>
<!-- xh -->
<g id="node36" class="node">
<title>xh</title>
<ellipse fill="none" stroke="#000000" cx="1767" cy="-810" rx="27" ry="18"/>
<text text-anchor="middle" x="1767" y="-805.8" font-family="Times,serif" font-size="14.00" fill="#000000">xh</text>
</g>
<!-- tj&#45;&gt;xh -->
<g id="edge31" class="edge">
<title>tj-&gt;xh</title>
<path fill="none" stroke="#000000" d="M1734.0074,-1007.9555C1740.2809,-970.3144 1754.8022,-883.1867 1762.3126,-838.1246"/>
<polygon fill="#000000" stroke="#000000" points="1765.7841,-838.5844 1763.9758,-828.1451 1758.8794,-837.4336 1765.7841,-838.5844"/>
</g>
<!-- lp -->
<g id="node42" class="node">
<title>lp</title>
<ellipse fill="none" stroke="#000000" cx="1731" cy="-1098" rx="27" ry="18"/>
<text text-anchor="middle" x="1731" y="-1093.8" font-family="Times,serif" font-size="14.00" fill="#000000">lp</text>
</g>
<!-- tj&#45;&gt;lp -->
<g id="edge37" class="edge">
<title>tj-&gt;lp</title>
<path fill="none" stroke="#000000" d="M1736.945,-1044.0931C1737.715,-1051.9477 1737.9326,-1061.3282 1737.5979,-1070.0453"/>
<polygon fill="#000000" stroke="#000000" points="1734.0938,-1069.9901 1736.9157,-1080.2022 1741.0781,-1070.4593 1734.0938,-1069.9901"/>
</g>
<!-- vb -->
<g id="node43" class="node">
<title>vb</title>
<polygon fill="none" stroke="#000000" points="1347,-252 1311,-252 1311,-216 1347,-216 1347,-252"/>
<text text-anchor="middle" x="1329" y="-229.8" font-family="Times,serif" font-size="14.00" fill="#000000">vb</text>
</g>
<!-- tj&#45;&gt;vb -->
<g id="edge36" class="edge">
<title>tj-&gt;vb</title>
<path fill="none" stroke="#000000" d="M1712.9725,-1024.128C1681.1575,-1019.9811 1614.4112,-1007.401 1572,-972 1536.8712,-942.6777 1522,-927.7584 1522,-882 1522,-882 1522,-882 1522,-378 1522,-296.6749 1410.5561,-255.7959 1357.0381,-240.8535"/>
<polygon fill="#000000" stroke="#000000" points="1357.7221,-237.4133 1347.157,-238.2065 1355.9107,-244.1749 1357.7221,-237.4133"/>
</g>
<!-- ct -->
<g id="node51" class="node">
<title>ct</title>
<ellipse fill="none" stroke="#000000" cx="1805" cy="-882" rx="27" ry="18"/>
<text text-anchor="middle" x="1805" y="-877.8" font-family="Times,serif" font-size="14.00" fill="#000000">ct</text>
</g>
<!-- tj&#45;&gt;ct -->
<g id="edge35" class="edge">
<title>tj-&gt;ct</title>
<path fill="none" stroke="#000000" d="M1742.8653,-1007.8268C1749.4136,-997.5001 1757.5092,-984.2276 1764,-972 1775.0039,-951.2704 1785.9456,-927.0195 1793.7545,-908.9173"/>
<polygon fill="#000000" stroke="#000000" points="1797.0441,-910.1258 1797.751,-899.5546 1790.6061,-907.3777 1797.0441,-910.1258"/>
</g>
<!-- dg -->
<g id="node18" class="node">
<title>dg</title>
<ellipse fill="none" stroke="#000000" cx="1758" cy="-378" rx="27" ry="18"/>
<text text-anchor="middle" x="1758" y="-373.8" font-family="Times,serif" font-size="14.00" fill="#000000">dg</text>
</g>
<!-- dg&#45;&gt;rf -->
<g id="edge38" class="edge">
<title>dg-&gt;rf</title>
<path fill="none" stroke="#000000" d="M1778.3109,-366.1107C1798.3412,-354.3857 1829.1596,-336.3456 1851.811,-323.0862"/>
<polygon fill="#000000" stroke="#000000" points="1853.7969,-325.9794 1860.6589,-317.907 1850.2606,-319.9383 1853.7969,-325.9794"/>
</g>
<!-- dg&#45;&gt;tj -->
<g id="edge39" class="edge">
<title>dg-&gt;tj</title>
<path fill="none" stroke="#000000" d="M1732.115,-383.8657C1678.4447,-397.7238 1560,-437.8409 1560,-522 1560,-882 1560,-882 1560,-882 1560,-928.4205 1578.5291,-940.9095 1613,-972 1639.026,-995.4737 1676.9956,-1010.3593 1702.7822,-1018.4261"/>
<polygon fill="#000000" stroke="#000000" points="1702.1007,-1021.8751 1712.6838,-1021.3768 1704.0998,-1015.1666 1702.1007,-1021.8751"/>
</g>
<!-- xt&#45;&gt;rk -->
<g id="edge40" class="edge">
<title>xt-&gt;rk</title>
<path fill="none" stroke="#000000" d="M164.3034,-576.2022C162.2024,-568.2406 159.676,-558.6671 157.335,-549.7957"/>
<polygon fill="#000000" stroke="#000000" points="160.6442,-548.6185 154.7084,-539.8425 153.8759,-550.4046 160.6442,-548.6185"/>
</g>
<!-- xt&#45;&gt;th -->
<g id="edge41" class="edge">
<title>xt-&gt;th</title>
<path fill="none" stroke="#000000" d="M165.4776,-612.1045C160.4982,-639.3176 152,-692.4358 152,-738 152,-1026 152,-1026 152,-1026 152,-1076.3727 193.0045,-1122.7116 221.135,-1148.5748"/>
<polygon fill="#000000" stroke="#000000" points="218.8922,-1151.2644 228.683,-1155.3129 223.5539,-1146.0424 218.8922,-1151.2644"/>
</g>
<!-- fq&#45;&gt;ff -->
<g id="edge42" class="edge">
<title>fq-&gt;ff</title>
<path fill="none" stroke="#000000" d="M763.9945,-288.937C759.616,-280.6409 754.2475,-270.469 749.3253,-261.1428"/>
<polygon fill="#000000" stroke="#000000" points="752.3681,-259.4094 744.6051,-252.1992 746.1774,-262.6767 752.3681,-259.4094"/>
</g>
<!-- gz&#45;&gt;dg -->
<g id="edge43" class="edge">
<title>gz-&gt;dg</title>
<path fill="none" stroke="#000000" d="M1758,-431.8314C1758,-424.131 1758,-414.9743 1758,-406.4166"/>
<polygon fill="#000000" stroke="#000000" points="1761.5001,-406.4132 1758,-396.4133 1754.5001,-406.4133 1761.5001,-406.4132"/>
</g>
<!-- rl -->
<g id="node22" class="node">
<title>rl</title>
<ellipse fill="none" stroke="#000000" cx="1072" cy="-234" rx="27" ry="18"/>
<text text-anchor="middle" x="1072" y="-229.8" font-family="Times,serif" font-size="14.00" fill="#000000">rl</text>
</g>
<!-- rl&#45;&gt;hb -->
<g id="edge44" class="edge">
<title>rl-&gt;hb</title>
<path fill="none" stroke="#000000" d="M1064.7149,-251.384C1054.1956,-278.1035 1036,-331.0997 1036,-378 1036,-882 1036,-882 1036,-882 1036,-928.4205 1054.5291,-940.9095 1089,-972 1115.026,-995.4737 1152.9956,-1010.3593 1178.7822,-1018.4261"/>
<polygon fill="#000000" stroke="#000000" points="1178.1007,-1021.8751 1188.6838,-1021.3768 1180.0998,-1015.1666 1178.1007,-1021.8751"/>
</g>
<!-- rc&#45;&gt;th -->
<g id="edge46" class="edge">
<title>rc-&gt;th</title>
<path fill="none" stroke="#000000" d="M175.4881,-456.3027C248.2963,-475.0446 452,-532.9373 452,-594 452,-1026 452,-1026 452,-1026 452,-1111.3972 331.4085,-1150.5075 275.2069,-1164.0977"/>
<polygon fill="#000000" stroke="#000000" points="274.147,-1160.7503 265.1924,-1166.4129 275.7238,-1167.5704 274.147,-1160.7503"/>
</g>
<!-- st -->
<g id="node46" class="node">
<title>st</title>
<ellipse fill="none" stroke="#000000" cx="93" cy="-378" rx="27" ry="18"/>
<text text-anchor="middle" x="93" y="-373.8" font-family="Times,serif" font-size="14.00" fill="#000000">st</text>
</g>
<!-- rc&#45;&gt;st -->
<g id="edge45" class="edge">
<title>rc-&gt;st</title>
<path fill="none" stroke="#000000" d="M137.3499,-434.0209C129.8965,-424.6061 120.3225,-412.5126 111.9786,-401.973"/>
<polygon fill="#000000" stroke="#000000" points="114.566,-399.6025 105.6148,-393.9345 109.0777,-403.9474 114.566,-399.6025"/>
</g>
<!-- km -->
<g id="node24" class="node">
<title>km</title>
<ellipse fill="none" stroke="#000000" cx="1167" cy="-522" rx="27" ry="18"/>
<text text-anchor="middle" x="1167" y="-517.8" font-family="Times,serif" font-size="14.00" fill="#000000">km</text>
</g>
<!-- fz -->
<g id="node37" class="node">
<title>fz</title>
<ellipse fill="none" stroke="#000000" cx="1148" cy="-450" rx="27" ry="18"/>
<text text-anchor="middle" x="1148" y="-445.8" font-family="Times,serif" font-size="14.00" fill="#000000">fz</text>
</g>
<!-- km&#45;&gt;fz -->
<g id="edge47" class="edge">
<title>km-&gt;fz</title>
<path fill="none" stroke="#000000" d="M1162.3034,-504.2022C1160.2024,-496.2406 1157.676,-486.6671 1155.335,-477.7957"/>
<polygon fill="#000000" stroke="#000000" points="1158.6442,-476.6185 1152.7084,-467.8425 1151.8759,-478.4046 1158.6442,-476.6185"/>
</g>
<!-- km&#45;&gt;hb -->
<g id="edge48" class="edge">
<title>km-&gt;hb</title>
<path fill="none" stroke="#000000" d="M1163.4776,-540.1045C1158.4982,-567.3176 1150,-620.4358 1150,-666 1150,-882 1150,-882 1150,-882 1150,-925.2403 1172.4945,-970.9813 1189.2212,-999.0168"/>
<polygon fill="#000000" stroke="#000000" points="1186.4126,-1001.1312 1194.6318,-1007.8166 1192.3756,-997.4647 1186.4126,-1001.1312"/>
</g>
<!-- gv&#45;&gt;ct -->
<g id="edge49" class="edge">
<title>gv-&gt;ct</title>
<path fill="none" stroke="#000000" d="M1967.443,-944.8812C1934.6,-932.1677 1874.9118,-909.0626 1837.7526,-894.6784"/>
<polygon fill="#000000" stroke="#000000" points="1838.9549,-891.3908 1828.3658,-891.0448 1836.4279,-897.9188 1838.9549,-891.3908"/>
</g>
<!-- lr&#45;&gt;tq -->
<g id="edge50" class="edge">
<title>lr-&gt;tq</title>
<path fill="none" stroke="#000000" d="M349.9945,-936.937C345.5172,-928.4537 340.0048,-918.0092 334.993,-908.513"/>
<polygon fill="#000000" stroke="#000000" points="337.9678,-906.6509 330.2048,-899.4407 331.7771,-909.9182 337.9678,-906.6509"/>
</g>
<!-- lg&#45;&gt;vd -->
<g id="edge51" class="edge">
<title>lg-&gt;vd</title>
<path fill="none" stroke="#000000" d="M709.6501,-578.0209C717.1035,-568.6061 726.6775,-556.5126 735.0214,-545.973"/>
<polygon fill="#000000" stroke="#000000" points="737.9223,-547.9474 741.3852,-537.9345 732.434,-543.6025 737.9223,-547.9474"/>
</g>
<!-- jh -->
<g id="node28" class="node">
<title>jh</title>
<ellipse fill="none" stroke="#000000" cx="74" cy="-306" rx="27" ry="18"/>
<text text-anchor="middle" x="74" y="-301.8" font-family="Times,serif" font-size="14.00" fill="#000000">jh</text>
</g>
<!-- jh&#45;&gt;th -->
<g id="edge52" class="edge">
<title>jh-&gt;th</title>
<path fill="none" stroke="#000000" d="M66.7149,-323.384C56.1956,-350.1035 38,-403.0997 38,-450 38,-1026 38,-1026 38,-1026 38,-1072.1966 54.3439,-1086.6271 90,-1116 127.7407,-1147.0902 184.4043,-1160.6883 218.3394,-1166.3247"/>
<polygon fill="#000000" stroke="#000000" points="218.0902,-1169.8274 228.5058,-1167.887 219.1535,-1162.9086 218.0902,-1169.8274"/>
</g>
<!-- rs -->
<g id="node29" class="node">
<title>rs</title>
<ellipse fill="none" stroke="#000000" cx="564" cy="-954" rx="27" ry="18"/>
<text text-anchor="middle" x="564" y="-949.8" font-family="Times,serif" font-size="14.00" fill="#000000">rs</text>
</g>
<!-- sq -->
<g id="node45" class="node">
<title>sq</title>
<ellipse fill="none" stroke="#000000" cx="564" cy="-882" rx="27" ry="18"/>
<text text-anchor="middle" x="564" y="-877.8" font-family="Times,serif" font-size="14.00" fill="#000000">sq</text>
</g>
<!-- rs&#45;&gt;sq -->
<g id="edge53" class="edge">
<title>rs-&gt;sq</title>
<path fill="none" stroke="#000000" d="M564,-935.8314C564,-928.131 564,-918.9743 564,-910.4166"/>
<polygon fill="#000000" stroke="#000000" points="567.5001,-910.4132 564,-900.4133 560.5001,-910.4133 567.5001,-910.4132"/>
</g>
<!-- rs&#45;&gt;ff -->
<g id="edge54" class="edge">
<title>rs-&gt;ff</title>
<path fill="none" stroke="#000000" d="M549.7321,-938.5084C528.2285,-913.4822 490,-861.7184 490,-810 490,-810 490,-810 490,-378 490,-332.6667 502.585,-316.3 538,-288 564.1426,-267.1096 658.806,-247.6724 706.7533,-238.8994"/>
<polygon fill="#000000" stroke="#000000" points="707.5582,-242.3109 716.7807,-237.0959 706.319,-235.4215 707.5582,-242.3109"/>
</g>
<!-- kc -->
<g id="node56" class="node">
<title>kc</title>
<ellipse fill="none" stroke="#000000" cx="1672" cy="-594" rx="27" ry="18"/>
<text text-anchor="middle" x="1672" y="-589.8" font-family="Times,serif" font-size="14.00" fill="#000000">kc</text>
</g>
<!-- bt&#45;&gt;kc -->
<g id="edge55" class="edge">
<title>bt-&gt;kc</title>
<path fill="none" stroke="#000000" d="M1686.3034,-648.2022C1684.2024,-640.2406 1681.676,-630.6671 1679.335,-621.7957"/>
<polygon fill="#000000" stroke="#000000" points="1682.6442,-620.6185 1676.7084,-611.8425 1675.8759,-622.4046 1682.6442,-620.6185"/>
</g>
<!-- mf&#45;&gt;qr -->
<g id="edge57" class="edge">
<title>mf-&gt;qr</title>
<path fill="none" stroke="#000000" d="M273.9945,-792.937C269.5172,-784.4537 264.0048,-774.0092 258.993,-764.513"/>
<polygon fill="#000000" stroke="#000000" points="261.9678,-762.6509 254.2048,-755.4407 255.7771,-765.9182 261.9678,-762.6509"/>
</g>
<!-- mf&#45;&gt;th -->
<g id="edge56" class="edge">
<title>mf-&gt;th</title>
<path fill="none" stroke="#000000" d="M279.4776,-828.1045C274.4982,-855.3176 266,-908.4358 266,-954 266,-1026 266,-1026 266,-1026 266,-1066.4718 258.532,-1112.7963 252.96,-1141.7275"/>
<polygon fill="#000000" stroke="#000000" points="249.4517,-1141.4254 250.9368,-1151.9156 256.3177,-1142.7889 249.4517,-1141.4254"/>
</g>
<!-- xf -->
<g id="node32" class="node">
<title>xf</title>
<ellipse fill="none" stroke="#000000" cx="1224" cy="-594" rx="27" ry="18"/>
<text text-anchor="middle" x="1224" y="-589.8" font-family="Times,serif" font-size="14.00" fill="#000000">xf</text>
</g>
<!-- xf&#45;&gt;km -->
<g id="edge58" class="edge">
<title>xf-&gt;km</title>
<path fill="none" stroke="#000000" d="M1211.3499,-578.0209C1203.8965,-568.6061 1194.3225,-556.5126 1185.9786,-545.973"/>
<polygon fill="#000000" stroke="#000000" points="1188.566,-543.6025 1179.6148,-537.9345 1183.0777,-547.9474 1188.566,-543.6025"/>
</g>
<!-- tp -->
<g id="node33" class="node">
<title>tp</title>
<ellipse fill="none" stroke="#000000" cx="1207" cy="-1098" rx="27" ry="18"/>
<text text-anchor="middle" x="1207" y="-1093.8" font-family="Times,serif" font-size="14.00" fill="#000000">tp</text>
</g>
<!-- tp&#45;&gt;hb -->
<g id="edge59" class="edge">
<title>tp-&gt;hb</title>
<path fill="none" stroke="#000000" d="M1201.0843,-1080.2022C1200.3005,-1072.3864 1200.0689,-1063.0171 1200.3898,-1054.2836"/>
<polygon fill="#000000" stroke="#000000" points="1203.896,-1054.2999 1201.055,-1044.0931 1196.9109,-1053.8439 1203.896,-1054.2999"/>
</g>
<!-- sv -->
<g id="node57" class="node">
<title>sv</title>
<ellipse fill="none" stroke="#000000" cx="1467" cy="-954" rx="27" ry="18"/>
<text text-anchor="middle" x="1467" y="-949.8" font-family="Times,serif" font-size="14.00" fill="#000000">sv</text>
</g>
<!-- tp&#45;&gt;sv -->
<g id="edge60" class="edge">
<title>tp-&gt;sv</title>
<path fill="none" stroke="#000000" d="M1227.8374,-1086.4593C1273.7628,-1061.0237 1383.8339,-1000.0612 1437.1079,-970.5556"/>
<polygon fill="#000000" stroke="#000000" points="1439.0112,-973.5025 1446.0634,-965.5957 1435.6197,-967.3789 1439.0112,-973.5025"/>
</g>
<!-- ch -->
<g id="node34" class="node">
<title>ch</title>
<ellipse fill="none" stroke="#000000" cx="1319" cy="-882" rx="27" ry="18"/>
<text text-anchor="middle" x="1319" y="-877.8" font-family="Times,serif" font-size="14.00" fill="#000000">ch</text>
</g>
<!-- ch&#45;&gt;mv -->
<g id="edge62" class="edge">
<title>ch-&gt;mv</title>
<path fill="none" stroke="#000000" d="M1309.9945,-864.937C1305.5172,-856.4537 1300.0048,-846.0092 1294.993,-836.513"/>
<polygon fill="#000000" stroke="#000000" points="1297.9678,-834.6509 1290.2048,-827.4407 1291.7771,-837.9182 1297.9678,-834.6509"/>
</g>
<!-- ch&#45;&gt;hb -->
<g id="edge61" class="edge">
<title>ch-&gt;hb</title>
<path fill="none" stroke="#000000" d="M1313.7297,-899.9919C1307.4582,-919.2507 1295.5747,-949.999 1278,-972 1265.7534,-987.331 1248.2372,-1000.7141 1233.6675,-1010.3221"/>
<polygon fill="#000000" stroke="#000000" points="1231.6115,-1007.4817 1225.05,-1015.8002 1235.3669,-1013.3891 1231.6115,-1007.4817"/>
</g>
<!-- xp&#45;&gt;xf -->
<g id="edge64" class="edge">
<title>xp-&gt;xf</title>
<path fill="none" stroke="#000000" d="M1224,-647.8314C1224,-640.131 1224,-630.9743 1224,-622.4166"/>
<polygon fill="#000000" stroke="#000000" points="1227.5001,-622.4132 1224,-612.4133 1220.5001,-622.4133 1227.5001,-622.4132"/>
</g>
<!-- xp&#45;&gt;hb -->
<g id="edge63" class="edge">
<title>xp-&gt;hb</title>
<path fill="none" stroke="#000000" d="M1216.7149,-683.384C1206.1956,-710.1035 1188,-763.0997 1188,-810 1188,-882 1188,-882 1188,-882 1188,-922.4718 1195.468,-968.7963 1201.04,-997.7275"/>
<polygon fill="#000000" stroke="#000000" points="1197.6823,-998.7889 1203.0632,-1007.9156 1204.5483,-997.4254 1197.6823,-998.7889"/>
</g>
<!-- js -->
<g id="node53" class="node">
<title>js</title>
<ellipse fill="none" stroke="#000000" cx="1729" cy="-738" rx="27" ry="18"/>
<text text-anchor="middle" x="1729" y="-733.8" font-family="Times,serif" font-size="14.00" fill="#000000">js</text>
</g>
<!-- xh&#45;&gt;js -->
<g id="edge65" class="edge">
<title>xh-&gt;js</title>
<path fill="none" stroke="#000000" d="M1757.9945,-792.937C1753.5172,-784.4537 1748.0048,-774.0092 1742.993,-764.513"/>
<polygon fill="#000000" stroke="#000000" points="1745.9678,-762.6509 1738.2048,-755.4407 1739.7771,-765.9182 1745.9678,-762.6509"/>
</g>
<!-- fz&#45;&gt;dx -->
<g id="edge67" class="edge">
<title>fz-&gt;dx</title>
<path fill="none" stroke="#000000" d="M1148,-431.8314C1148,-424.131 1148,-414.9743 1148,-406.4166"/>
<polygon fill="#000000" stroke="#000000" points="1151.5001,-406.4132 1148,-396.4133 1144.5001,-406.4133 1151.5001,-406.4132"/>
</g>
<!-- fz&#45;&gt;hb -->
<g id="edge66" class="edge">
<title>fz-&gt;hb</title>
<path fill="none" stroke="#000000" d="M1140.7149,-467.384C1130.1956,-494.1035 1112,-547.0997 1112,-594 1112,-882 1112,-882 1112,-882 1112,-932.3727 1153.0045,-978.7116 1181.135,-1004.5748"/>
<polygon fill="#000000" stroke="#000000" points="1178.8922,-1007.2644 1188.683,-1011.3129 1183.5539,-1002.0424 1178.8922,-1007.2644"/>
</g>
<!-- zp&#45;&gt;bn -->
<g id="edge68" class="edge">
<title>zp-&gt;bn</title>
<path fill="none" stroke="#000000" d="M630.0055,-720.937C634.4828,-712.4537 639.9952,-702.0092 645.007,-692.513"/>
<polygon fill="#000000" stroke="#000000" points="648.2229,-693.9182 649.7952,-683.4407 642.0322,-690.6509 648.2229,-693.9182"/>
</g>
<!-- kv -->
<g id="node39" class="node">
<title>kv</title>
<polygon fill="none" stroke="#000000" points="981,-180 945,-180 945,-144 981,-144 981,-180"/>
<text text-anchor="middle" x="963" y="-157.8" font-family="Times,serif" font-size="14.00" fill="#000000">kv</text>
</g>
<!-- kv&#45;&gt;ll -->
<g id="edge69" class="edge">
<title>kv-&gt;ll</title>
<path fill="none" stroke="#000000" d="M958.4578,-143.8314C956.5116,-136.0463 954.1932,-126.7729 952.0337,-118.1347"/>
<polygon fill="#000000" stroke="#000000" points="955.4242,-117.2658 949.6033,-108.4133 948.6332,-118.9636 955.4242,-117.2658"/>
</g>
<!-- rx -->
<g id="node59" class="node">
<title>rx</title>
<ellipse fill="none" stroke="#000000" cx="945" cy="-18" rx="27" ry="18"/>
<text text-anchor="middle" x="945" y="-13.8" font-family="Times,serif" font-size="14.00" fill="#000000">rx</text>
</g>
<!-- ll&#45;&gt;rx -->
<g id="edge70" class="edge">
<title>ll-&gt;rx</title>
<path fill="none" stroke="#000000" d="M945,-71.8314C945,-64.131 945,-54.9743 945,-46.4166"/>
<polygon fill="#000000" stroke="#000000" points="948.5001,-46.4132 945,-36.4133 941.5001,-46.4133 948.5001,-46.4132"/>
</g>
<!-- zz -->
<g id="node41" class="node">
<title>zz</title>
<ellipse fill="none" stroke="#000000" cx="951" cy="-1098" rx="27" ry="18"/>
<text text-anchor="middle" x="951" y="-1093.8" font-family="Times,serif" font-size="14.00" fill="#000000">zz</text>
</g>
<!-- fj -->
<g id="node48" class="node">
<title>fj</title>
<ellipse fill="none" stroke="#000000" cx="887" cy="-1026" rx="27" ry="18"/>
<text text-anchor="middle" x="887" y="-1021.8" font-family="Times,serif" font-size="14.00" fill="#000000">fj</text>
</g>
<!-- zz&#45;&gt;fj -->
<g id="edge71" class="edge">
<title>zz-&gt;fj</title>
<path fill="none" stroke="#000000" d="M937.113,-1082.3771C928.4747,-1072.659 917.2107,-1059.987 907.5503,-1049.1191"/>
<polygon fill="#000000" stroke="#000000" points="910.1196,-1046.7413 900.8599,-1041.5924 904.8877,-1051.3918 910.1196,-1046.7413"/>
</g>
<!-- zz&#45;&gt;ff -->
<g id="edge72" class="edge">
<title>zz-&gt;ff</title>
<path fill="none" stroke="#000000" d="M945.234,-1080.265C942,-1053.0869 942,-999.5 942,-954 942,-954 942,-954 942,-378 942,-291.2335 819.8441,-253.5303 763.0877,-240.1667"/>
<polygon fill="#000000" stroke="#000000" points="763.8215,-236.7443 753.2953,-237.9483 762.2749,-243.5713 763.8215,-236.7443"/>
</g>
<!-- lp&#45;&gt;tj -->
<g id="edge74" class="edge">
<title>lp-&gt;tj</title>
<path fill="none" stroke="#000000" d="M1725.0843,-1080.2022C1724.3005,-1072.3864 1724.0689,-1063.0171 1724.3898,-1054.2836"/>
<polygon fill="#000000" stroke="#000000" points="1727.896,-1054.2999 1725.055,-1044.0931 1720.9109,-1053.8439 1727.896,-1054.2999"/>
</g>
<!-- lp&#45;&gt;gv -->
<g id="edge73" class="edge">
<title>lp-&gt;gv</title>
<path fill="none" stroke="#000000" d="M1751.8374,-1086.4593C1797.7628,-1061.0237 1907.8339,-1000.0612 1961.1079,-970.5556"/>
<polygon fill="#000000" stroke="#000000" points="1963.0112,-973.5025 1970.0634,-965.5957 1959.6197,-967.3789 1963.0112,-973.5025"/>
</g>
<!-- vb&#45;&gt;ll -->
<g id="edge75" class="edge">
<title>vb-&gt;ll</title>
<path fill="none" stroke="#000000" d="M1310.9939,-227.2477C1249.5322,-204.1996 1047.7081,-128.5156 973.0733,-100.5275"/>
<polygon fill="#000000" stroke="#000000" points="974.0062,-97.1394 963.414,-96.9052 971.5483,-103.6937 974.0062,-97.1394"/>
</g>
<!-- th&#45;&gt;tq -->
<g id="edge76" class="edge">
<title>th-&gt;tq</title>
<path fill="none" stroke="#000000" d="M260.435,-1151.9009C267.2951,-1141.8135 275.1879,-1128.7457 280,-1116 306.7817,-1045.0638 316.2421,-955.3337 319.4474,-910.3855"/>
<polygon fill="#000000" stroke="#000000" points="322.9523,-910.4251 320.1189,-900.2162 315.9675,-909.9638 322.9523,-910.4251"/>
</g>
<!-- th&#45;&gt;vm -->
<g id="edge78" class="edge">
<title>th-&gt;vm</title>
<path fill="none" stroke="#000000" d="M228.7012,-1166.8997C185.2467,-1159.2452 77.3639,-1138.4364 49,-1116 13.28,-1087.7448 0,-1071.5442 0,-1026 0,-1026 0,-1026 0,-306 0,-240.0101 223.5525,-185.3576 303.7722,-167.8704"/>
<polygon fill="#000000" stroke="#000000" points="304.6358,-171.2648 313.6773,-165.7421 303.1652,-164.421 304.6358,-171.2648"/>
</g>
<!-- th&#45;&gt;qr -->
<g id="edge80" class="edge">
<title>th-&gt;qr</title>
<path fill="none" stroke="#000000" d="M243.0632,-1151.9156C237.498,-1124.7281 228,-1071.6422 228,-1026 228,-1026 228,-1026 228,-882 228,-841.5973 234.6819,-795.2552 239.6674,-766.3013"/>
<polygon fill="#000000" stroke="#000000" points="243.1757,-766.5623 241.4776,-756.1045 236.2835,-765.3387 243.1757,-766.5623"/>
</g>
<!-- th&#45;&gt;lr -->
<g id="edge77" class="edge">
<title>th-&gt;lr</title>
<path fill="none" stroke="#000000" d="M265.2518,-1160.7662C281.5252,-1151.5952 304.7605,-1136.0227 318,-1116 345.2895,-1074.7288 354.4152,-1016.5503 357.4668,-982.3074"/>
<polygon fill="#000000" stroke="#000000" points="360.976,-982.3231 358.2595,-972.0824 353.997,-981.782 360.976,-982.3231"/>
</g>
<!-- fn -->
<g id="node50" class="node">
<title>fn</title>
<ellipse fill="none" stroke="#000000" cx="507" cy="-1098" rx="27" ry="18"/>
<text text-anchor="middle" x="507" y="-1093.8" font-family="Times,serif" font-size="14.00" fill="#000000">fn</text>
</g>
<!-- th&#45;&gt;fn -->
<g id="edge79" class="edge">
<title>th-&gt;fn</title>
<path fill="none" stroke="#000000" d="M265.2531,-1165.5467C302.3171,-1157.6159 387.4835,-1139.6343 457,-1116 462.2441,-1114.2171 467.745,-1112.0323 473.1477,-1109.8075"/>
<polygon fill="#000000" stroke="#000000" points="474.8013,-1112.9104 482.6896,-1105.8376 472.1123,-1106.4475 474.8013,-1112.9104"/>
</g>
<!-- sq&#45;&gt;zd -->
<g id="edge81" class="edge">
<title>sq-&gt;zd</title>
<path fill="none" stroke="#000000" d="M568.6966,-864.2022C570.7976,-856.2406 573.324,-846.6671 575.665,-837.7957"/>
<polygon fill="#000000" stroke="#000000" points="579.1241,-838.4046 578.2916,-827.8425 572.3558,-836.6185 579.1241,-838.4046"/>
</g>
<!-- sq&#45;&gt;ff -->
<g id="edge82" class="edge">
<title>sq-&gt;ff</title>
<path fill="none" stroke="#000000" d="M556.7149,-864.616C546.1956,-837.8965 528,-784.9003 528,-738 528,-738 528,-738 528,-378 528,-332.0242 543.6659,-317.4156 579,-288 616.3655,-256.8932 672.712,-243.3005 706.4759,-237.6697"/>
<polygon fill="#000000" stroke="#000000" points="707.2425,-241.0929 716.592,-236.1091 706.1753,-234.1747 707.2425,-241.0929"/>
</g>
<!-- st&#45;&gt;jh -->
<g id="edge84" class="edge">
<title>st-&gt;jh</title>
<path fill="none" stroke="#000000" d="M88.3034,-360.2022C86.2024,-352.2406 83.676,-342.6671 81.335,-333.7957"/>
<polygon fill="#000000" stroke="#000000" points="84.6442,-332.6185 78.7084,-323.8425 77.8759,-334.4046 84.6442,-332.6185"/>
</g>
<!-- st&#45;&gt;th -->
<g id="edge83" class="edge">
<title>st-&gt;th</title>
<path fill="none" stroke="#000000" d="M89.4776,-396.1045C84.4982,-423.3176 76,-476.4358 76,-522 76,-1026 76,-1026 76,-1026 76,-1072.6476 95.2827,-1084.8438 130,-1116 155.9017,-1139.2449 193.5288,-1154.1798 219.0658,-1162.3205"/>
<polygon fill="#000000" stroke="#000000" points="218.2846,-1165.7411 228.8703,-1165.3024 220.3214,-1159.044 218.2846,-1165.7411"/>
</g>
<!-- fx&#45;&gt;rl -->
<g id="edge85" class="edge">
<title>fx-&gt;rl</title>
<path fill="none" stroke="#000000" d="M1086.3034,-288.2022C1084.2024,-280.2406 1081.676,-270.6671 1079.335,-261.7957"/>
<polygon fill="#000000" stroke="#000000" points="1082.6442,-260.6185 1076.7084,-251.8425 1075.8759,-262.4046 1082.6442,-260.6185"/>
</g>
<!-- fx&#45;&gt;hb -->
<g id="edge86" class="edge">
<title>fx-&gt;hb</title>
<path fill="none" stroke="#000000" d="M1087.4776,-324.1045C1082.4982,-351.3176 1074,-404.4358 1074,-450 1074,-882 1074,-882 1074,-882 1074,-943.648 1140.5949,-990.1531 1179.5381,-1012.0779"/>
<polygon fill="#000000" stroke="#000000" points="1178.33,-1015.4055 1188.7858,-1017.1167 1181.6793,-1009.2587 1178.33,-1015.4055"/>
</g>
<!-- fj&#45;&gt;rs -->
<g id="edge87" class="edge">
<title>fj-&gt;rs</title>
<path fill="none" stroke="#000000" d="M861.3847,-1020.2901C804.0228,-1007.5035 665.144,-976.546 599.5007,-961.9135"/>
<polygon fill="#000000" stroke="#000000" points="600.1399,-958.4701 589.6179,-959.7105 598.6168,-965.3024 600.1399,-958.4701"/>
</g>
<!-- lq&#45;&gt;tj -->
<g id="edge88" class="edge">
<title>lq-&gt;tj</title>
<path fill="none" stroke="#000000" d="M1913.8016,-251.9672C1922.003,-279.0051 1936,-331.9025 1936,-378 1936,-882 1936,-882 1936,-882 1936,-967.3972 1815.4085,-1006.5075 1759.2069,-1020.0977"/>
<polygon fill="#000000" stroke="#000000" points="1758.147,-1016.7503 1749.1924,-1022.4129 1759.7238,-1023.5704 1758.147,-1016.7503"/>
</g>
<!-- fn&#45;&gt;bv -->
<g id="edge90" class="edge">
<title>fn-&gt;bv</title>
<path fill="none" stroke="#000000" d="M487.5874,-1085.2936C470.258,-1073.9507 444.6682,-1057.201 425.1028,-1044.3946"/>
<polygon fill="#000000" stroke="#000000" points="426.8724,-1041.3698 416.5885,-1038.8216 423.0387,-1047.2267 426.8724,-1041.3698"/>
</g>
<!-- fn&#45;&gt;th -->
<g id="edge89" class="edge">
<title>fn-&gt;th</title>
<path fill="none" stroke="#000000" d="M487.9163,-1111.0422C483.7079,-1112.831 479.2689,-1114.5487 475,-1116 404.956,-1139.8136 319.0236,-1157.8885 275.1832,-1165.7255"/>
<polygon fill="#000000" stroke="#000000" points="274.4842,-1162.2944 265.2299,-1167.4527 275.6811,-1169.1913 274.4842,-1162.2944"/>
</g>
<!-- ct&#45;&gt;xh -->
<g id="edge91" class="edge">
<title>ct-&gt;xh</title>
<path fill="none" stroke="#000000" d="M1795.9945,-864.937C1791.5172,-856.4537 1786.0048,-846.0092 1780.993,-836.513"/>
<polygon fill="#000000" stroke="#000000" points="1783.9678,-834.6509 1776.2048,-827.4407 1777.7771,-837.9182 1783.9678,-834.6509"/>
</g>
<!-- ff&#45;&gt;kl -->
<g id="edge92" class="edge">
<title>ff-&gt;kl</title>
<path fill="none" stroke="#000000" d="M752.664,-215.8314C760.9732,-207.2848 771.0264,-196.9443 780.0918,-187.6198"/>
<polygon fill="#000000" stroke="#000000" points="782.6369,-190.023 787.0982,-180.4133 777.6179,-185.1435 782.6369,-190.023"/>
</g>
<!-- ff&#45;&gt;zd -->
<g id="edge93" class="edge">
<title>ff-&gt;zd</title>
<path fill="none" stroke="#000000" d="M716.9947,-238.7029C692.4203,-245.8741 648.1116,-261.571 619,-288 584.6304,-319.2024 566,-331.5795 566,-378 566,-666 566,-666 566,-666 566,-706.4027 572.6819,-752.7448 577.6674,-781.6987"/>
<polygon fill="#000000" stroke="#000000" points="574.2835,-782.6613 579.4776,-791.8955 581.1757,-781.4377 574.2835,-782.6613"/>
</g>
<!-- ff&#45;&gt;lg -->
<g id="edge94" class="edge">
<title>ff-&gt;lg</title>
<path fill="none" stroke="#000000" d="M723.0658,-252.2446C706.8899,-278.7808 680,-330.097 680,-378 680,-450 680,-450 680,-450 680,-490.4027 686.6819,-536.7448 691.6674,-565.6987"/>
<polygon fill="#000000" stroke="#000000" points="688.2835,-566.6613 693.4776,-575.8955 695.1757,-565.4377 688.2835,-566.6613"/>
</g>
<!-- ff&#45;&gt;zp -->
<g id="edge97" class="edge">
<title>ff-&gt;zp</title>
<path fill="none" stroke="#000000" d="M716.785,-243.1062C680.7898,-262.5387 604,-311.7576 604,-378 604,-594 604,-594 604,-594 604,-634.4027 610.6819,-680.7448 615.6674,-709.6987"/>
<polygon fill="#000000" stroke="#000000" points="612.2835,-710.6613 617.4776,-719.8955 619.1757,-709.4377 612.2835,-710.6613"/>
</g>
<!-- ff&#45;&gt;zz -->
<g id="edge95" class="edge">
<title>ff-&gt;zz</title>
<path fill="none" stroke="#000000" d="M753.1391,-236.3793C806.9377,-245.2276 960,-280.8755 960,-378 960,-954 960,-954 960,-954 960,-994.3457 960,-1041.0499 957.7453,-1070.0622"/>
<polygon fill="#000000" stroke="#000000" points="954.2375,-1069.9763 956.766,-1080.265 961.2055,-1070.6452 954.2375,-1069.9763"/>
</g>
<!-- ff&#45;&gt;fj -->
<g id="edge96" class="edge">
<title>ff-&gt;fj</title>
<path fill="none" stroke="#000000" d="M753.086,-239.6771C796.6833,-254.613 904,-299.3646 904,-378 904,-882 904,-882 904,-882 904,-922.4027 897.3181,-968.7448 892.3326,-997.6987"/>
<polygon fill="#000000" stroke="#000000" points="888.8243,-997.4377 890.5224,-1007.8955 895.7165,-998.6613 888.8243,-997.4377"/>
</g>
<!-- js&#45;&gt;tj -->
<g id="edge98" class="edge">
<title>js-&gt;tj</title>
<path fill="none" stroke="#000000" d="M1729.1251,-756.0089C1729.4631,-804.6912 1730.3971,-939.1886 1730.8051,-997.9345"/>
<polygon fill="#000000" stroke="#000000" points="1727.3054,-998.0089 1730.8749,-1007.9843 1734.3053,-997.9602 1727.3054,-998.0089"/>
</g>
<!-- js&#45;&gt;bt -->
<g id="edge99" class="edge">
<title>js-&gt;bt</title>
<path fill="none" stroke="#000000" d="M1719.9945,-720.937C1715.5172,-712.4537 1710.0048,-702.0092 1704.993,-692.513"/>
<polygon fill="#000000" stroke="#000000" points="1707.9678,-690.6509 1700.2048,-683.4407 1701.7771,-693.9182 1707.9678,-690.6509"/>
</g>
<!-- mb&#45;&gt;ld -->
<g id="edge100" class="edge">
<title>mb-&gt;ld</title>
<path fill="none" stroke="#000000" d="M758.6966,-432.2022C760.7976,-424.2406 763.324,-414.6671 765.665,-405.7957"/>
<polygon fill="#000000" stroke="#000000" points="769.1241,-406.4046 768.2916,-395.8425 762.3558,-404.6185 769.1241,-406.4046"/>
</g>
<!-- mb&#45;&gt;ff -->
<g id="edge101" class="edge">
<title>mb-&gt;ff</title>
<path fill="none" stroke="#000000" d="M746.9908,-432.3169C743.2378,-421.9226 738.9878,-408.4226 737,-396 729.5733,-349.5873 730.9903,-294.7385 732.8697,-262.2442"/>
<polygon fill="#000000" stroke="#000000" points="736.3714,-262.3278 733.5127,-252.1259 729.3854,-261.8838 736.3714,-262.3278"/>
</g>
<!-- hb&#45;&gt;mx -->
<g id="edge106" class="edge">
<title>hb-&gt;mx</title>
<path fill="none" stroke="#000000" d="M1209.252,-1007.9843C1215.3383,-959.2939 1232.1505,-824.7961 1239.4928,-766.0573"/>
<polygon fill="#000000" stroke="#000000" points="1242.9814,-766.3658 1240.7489,-756.0089 1236.0355,-765.4975 1242.9814,-766.3658"/>
</g>
<!-- hb&#45;&gt;xf -->
<g id="edge103" class="edge">
<title>hb-&gt;xf</title>
<path fill="none" stroke="#000000" d="M1225.1898,-1020.1449C1268.4726,-1004.9474 1374,-959.9061 1374,-882 1374,-882 1374,-882 1374,-738 1374,-673.259 1300.3844,-628.5557 1256.2961,-607.5882"/>
<polygon fill="#000000" stroke="#000000" points="1257.656,-604.3612 1247.1088,-603.3576 1254.728,-610.7195 1257.656,-604.3612"/>
</g>
<!-- hb&#45;&gt;tp -->
<g id="edge105" class="edge">
<title>hb-&gt;tp</title>
<path fill="none" stroke="#000000" d="M1212.945,-1044.0931C1213.715,-1051.9477 1213.9326,-1061.3282 1213.5979,-1070.0453"/>
<polygon fill="#000000" stroke="#000000" points="1210.0938,-1069.9901 1212.9157,-1080.2022 1217.0781,-1070.4593 1210.0938,-1069.9901"/>
</g>
<!-- hb&#45;&gt;kv -->
<g id="edge104" class="edge">
<title>hb-&gt;kv</title>
<path fill="none" stroke="#000000" d="M1188.9725,-1024.128C1157.1575,-1019.9811 1090.4112,-1007.401 1048,-972 1012.8712,-942.6777 998,-927.7584 998,-882 998,-882 998,-882 998,-306 998,-264.755 984.2747,-218.697 974.0142,-190.0283"/>
<polygon fill="#000000" stroke="#000000" points="977.1678,-188.4643 970.4226,-180.2941 970.6006,-190.8874 977.1678,-188.4643"/>
</g>
<!-- hb&#45;&gt;sv -->
<g id="edge102" class="edge">
<title>hb-&gt;sv</title>
<path fill="none" stroke="#000000" d="M1225.1852,-1022.6188C1263.105,-1015.3291 1353.1467,-996.7687 1426,-972 1429.0912,-970.949 1432.2717,-969.7584 1435.429,-968.5023"/>
<polygon fill="#000000" stroke="#000000" points="1436.8472,-971.7029 1444.7186,-964.6113 1434.1428,-965.2464 1436.8472,-971.7029"/>
</g>
<!-- kc&#45;&gt;qm -->
<g id="edge107" class="edge">
<title>kc-&gt;qm</title>
<path fill="none" stroke="#000000" d="M1672,-575.8314C1672,-568.131 1672,-558.9743 1672,-550.4166"/>
<polygon fill="#000000" stroke="#000000" points="1675.5001,-550.4132 1672,-540.4133 1668.5001,-550.4133 1675.5001,-550.4132"/>
</g>
<!-- kc&#45;&gt;tj -->
<g id="edge108" class="edge">
<title>kc-&gt;tj</title>
<path fill="none" stroke="#000000" d="M1664.7149,-611.384C1654.1956,-638.1035 1636,-691.0997 1636,-738 1636,-882 1636,-882 1636,-882 1636,-932.3727 1677.0045,-978.7116 1705.135,-1004.5748"/>
<polygon fill="#000000" stroke="#000000" points="1702.8922,-1007.2644 1712.683,-1011.3129 1707.5539,-1002.0424 1702.8922,-1007.2644"/>
</g>
<!-- sv&#45;&gt;ch -->
<g id="edge109" class="edge">
<title>sv-&gt;ch</title>
<path fill="none" stroke="#000000" d="M1445.1621,-943.3762C1420.0222,-931.1459 1378.5399,-910.9654 1350.0492,-897.105"/>
<polygon fill="#000000" stroke="#000000" points="1351.451,-893.8948 1340.9275,-892.6674 1348.3887,-900.1895 1351.451,-893.8948"/>
</g>
<!-- roadcaster -->
<g id="node58" class="node">
<title>roadcaster</title>
<ellipse fill="none" stroke="#000000" cx="1088" cy="-1170" rx="50.9192" ry="18"/>
<text text-anchor="middle" x="1088" y="-1165.8" font-family="Times,serif" font-size="14.00" fill="#000000">roadcaster</text>
</g>
<!-- roadcaster&#45;&gt;tp -->
<g id="edge27" class="edge">
<title>roadcaster-&gt;tp</title>
<path fill="none" stroke="#000000" d="M1113.8212,-1154.3771C1132.7049,-1142.9517 1158.3369,-1127.4432 1177.9378,-1115.5839"/>
<polygon fill="#000000" stroke="#000000" points="1180.0019,-1118.4258 1186.7459,-1110.2546 1176.3782,-1112.4367 1180.0019,-1118.4258"/>
</g>
<!-- roadcaster&#45;&gt;zz -->
<g id="edge28" class="edge">
<title>roadcaster-&gt;zz</title>
<path fill="none" stroke="#000000" d="M1059.6135,-1155.0816C1036.8816,-1143.1349 1005.0498,-1126.4057 981.7227,-1114.1462"/>
<polygon fill="#000000" stroke="#000000" points="983.0915,-1110.9117 972.6112,-1109.3577 979.8349,-1117.1081 983.0915,-1110.9117"/>
</g>
<!-- roadcaster&#45;&gt;lp -->
<g id="edge25" class="edge">
<title>roadcaster-&gt;lp</title>
<path fill="none" stroke="#000000" d="M1136.5931,-1164.5588C1260.1843,-1150.7196 1584.4656,-1114.4082 1694.14,-1102.1274"/>
<polygon fill="#000000" stroke="#000000" points="1694.8187,-1105.5734 1704.3671,-1100.9822 1694.0397,-1098.6168 1694.8187,-1105.5734"/>
</g>
<!-- roadcaster&#45;&gt;fn -->
<g id="edge26" class="edge">
<title>roadcaster-&gt;fn</title>
<path fill="none" stroke="#000000" d="M1039.96,-1164.0467C926.6555,-1150.0055 644.6943,-1115.0637 543.7077,-1102.549"/>
<polygon fill="#000000" stroke="#000000" points="544.0362,-1099.063 533.6816,-1101.3065 543.1753,-1106.0099 544.0362,-1099.063"/>
</g>
</g>
</svg>